# xmcd
#
# Track frame offsets: 
#        150
#        13857
#        24682
#        37514
#        49038
#        70260
#        83465
#        96900
#        109508
#        123593
#
# Disc length: 1848 seconds
#
# Revision: 0
# Processed by: cddbd v1.5.2PL0 Copyright (c) Steve Scherf et al.
# Submitted via: ExactAudioCopy v0.99pb4
#
DISCID=7207360a
DTITLE=Bill Monroe - Master of Bluegrass
DYEAR=1981
DGENRE=Bluegrass
TTITLE0=Old Ebenezer Scrooge
TTITLE1=Right, Right On
TTITLE2=Melissa's Waltz for J.B.
TTITLE3=Fair Play
TTITLE4=My Last Days on Earth
TTITLE5=Go Hither to Go Yonder
TTITLE6=Lochwood
TTITLE7=Lady of the Blue Ridge
TTITLE8=Old Danger Field
TTITLE9=Evening Prayer Blues
EXTD=
EXTT0=
EXTT1=
EXTT2=
EXTT3=
EXTT4=
EXTT5=
EXTT6=
EXTT7=
EXTT8=
EXTT9=
PLAYORDER=
